<?xml version="1.0" standalone="no"?>
<!DOCTYPE svg PUBLIC "-//W3C//DTD SVG 20010904//EN"
 "http://www.w3.org/TR/2001/REC-SVG-20010904/DTD/svg10.dtd">
<svg version="1.0" xmlns="http://www.w3.org/2000/svg"
 width="300.000000pt" height="300.000000pt" viewBox="0 0 300.000000 300.000000"
 preserveAspectRatio="xMidYMid meet">

<g transform="translate(0.000000,300.000000) scale(0.100000,-0.100000)"
fill="#000000" stroke="none">
<path d="M871 1869 c-51 -16 -76 -32 -121 -77 -71 -72 -100 -142 -107 -262
-12 -201 79 -348 246 -397 72 -21 190 -13 257 16 67 30 137 101 171 175 26 57
28 70 28 186 0 114 -2 130 -26 181 -60 128 -154 189 -299 195 -67 3 -99 0
-149 -17z m204 -70 c60 -15 126 -75 156 -141 33 -76 33 -230 1 -303 -40 -88
-107 -139 -196 -151 -103 -14 -192 24 -247 106 -39 57 -52 110 -52 200 1 105
29 176 94 234 68 61 147 79 244 55z"/>
<path d="M2431 1869 c-51 -16 -76 -32 -121 -77 -71 -72 -100 -142 -107 -262
-12 -201 79 -348 246 -397 72 -21 190 -13 257 16 67 30 137 101 171 175 26 57
28 70 28 186 0 114 -2 130 -26 181 -60 128 -154 189 -299 195 -67 3 -99 0
-149 -17z m204 -70 c60 -15 126 -75 156 -141 33 -76 33 -230 1 -303 -40 -88
-107 -139 -196 -151 -103 -14 -192 24 -247 106 -39 57 -52 110 -52 200 1 105
29 176 94 234 68 61 147 79 244 55z"/>
<path d="M50 1840 l0 -40 110 0 110 0 0 -335 0 -335 45 0 45 0 0 335 0 335
105 0 105 0 0 40 0 40 -260 0 -260 0 0 -40z"/>
<path d="M1500 1505 l0 -377 158 4 c132 4 166 8 214 27 76 30 159 106 195 179
26 53 28 65 28 182 0 119 -1 128 -30 185 -21 40 -46 71 -79 96 -78 59 -128 71
-318 77 l-168 4 0 -377z m360 268 c98 -44 143 -122 144 -248 1 -103 -17 -164
-65 -219 -57 -64 -121 -89 -246 -94 l-103 -4 0 297 0 298 113 -5 c84 -3 123
-10 157 -25z"/>
</g>
</svg>
